<?xml version="1.0" encoding="UTF-8"?>
<svg version="1.1" xmlns="http://www.w3.org/2000/svg" width="960" height="540">
<path d="M0 0 C7.67538184 7.6793389 12.42651863 16.00060157 16.01049805 26.20654297 C16.25799805 26.90908203 16.50549805 27.61162109 16.76049805 28.33544922 C21.46016369 45.01273493 17.5832766 63.88445448 9.42431641 78.76049805 C5.4233919 85.5924278 0.37805146 91.42134131 -4.98950195 97.20654297 C-5.71911133 98.00576172 -6.4487207 98.80498047 -7.20043945 99.62841797 C-14.63537076 107.42265822 -23.3768875 113.78429713 -31.98950195 120.20654297 C-31.55954023 124.66739583 -28.45413017 127.22136183 -25.48950195 130.26904297 C-21.6598566 134.30263393 -17.96418134 138.35680645 -14.48950195 142.70654297 C-8.13945223 150.61218074 -1.21018829 158.08876428 6.01049805 165.20654297 C6.25928711 164.64193359 6.50807617 164.07732422 6.7644043 163.49560547 C8.20750245 160.84464773 9.95615477 158.85073151 11.94799805 156.58154297 C21.00842422 145.71197326 29.96754792 133.18487314 30.66674805 118.88623047 C31.01049805 116.20654297 31.01049805 116.20654297 33.01049805 114.20654297 C35.43879865 114.00839112 37.75303824 113.9337103 40.18237305 113.94775391 C40.92072388 113.94424927 41.65907471 113.94074463 42.4197998 113.93713379 C44.86679413 113.92831248 47.31350065 113.93416693 49.76049805 113.94091797 C51.45678768 113.93957143 53.15307693 113.93763099 54.84936523 113.93511963 C58.40701974 113.93216783 61.96457393 113.93646778 65.5222168 113.94580078 C70.08900945 113.95719538 74.65556705 113.9506362 79.22235107 113.93865585 C82.72584819 113.93143874 86.22928931 113.93372449 89.73278809 113.93891144 C91.41695178 113.94024835 93.10112051 113.93859877 94.78527832 113.93395233 C97.13653079 113.9288895 99.48739928 113.93659364 101.83862305 113.94775391 C102.53894653 113.94370544 103.23927002 113.93965698 103.96081543 113.93548584 C108.78196889 113.97801381 108.78196889 113.97801381 111.01049805 116.20654297 C111.25341797 118.07006836 111.25341797 118.07006836 111.2409668 120.30419922 C111.2390332 121.10535156 111.23709961 121.90650391 111.23510742 122.73193359 C111.22286133 123.56917969 111.21061523 124.40642578 111.19799805 125.26904297 C111.19735352 126.11015625 111.19670898 126.95126953 111.19604492 127.81787109 C111.15072989 134.06631113 111.15072989 134.06631113 110.01049805 135.20654297 C107.19886425 135.29516289 104.41191549 135.32176652 101.6003418 135.30419922 C100.75830704 135.30278427 99.91627228 135.30136932 99.04872131 135.2999115 C96.3484447 135.2942956 93.64824977 135.28174045 90.94799805 135.26904297 C89.12182737 135.26403001 87.29565539 135.25946675 85.46948242 135.25537109 C80.98312263 135.24432101 76.4968242 135.22704576 72.01049805 135.20654297 C71.58486572 136.558125 71.58486572 136.558125 71.15063477 137.93701172 C70.19612515 140.67422643 69.17651983 143.00239466 67.76831055 145.51904297 C67.34163086 146.28474609 66.91495117 147.05044922 66.4753418 147.83935547 C66.03319336 148.62052734 65.59104492 149.40169922 65.13549805 150.20654297 C64.70108398 150.98771484 64.26666992 151.76888672 63.8190918 152.57373047 C61.92422004 155.95377198 60.05640106 159.14428005 57.75268555 162.26904297 C55.39565262 165.7974578 55.39565262 165.7974578 55.01049805 173.20654297 C73.16049805 173.20654297 91.31049805 173.20654297 110.01049805 173.20654297 C111.65122064 176.48798815 111.15324238 180.10444293 111.13549805 183.70654297 C111.13936523 184.49158203 111.14323242 185.27662109 111.1472168 186.08544922 C111.13715198 191.95323509 111.13715198 191.95323509 110.01049805 194.20654297 C91.86049805 194.20654297 73.71049805 194.20654297 55.01049805 194.20654297 C54.96924805 198.92966797 54.92799805 203.65279297 54.88549805 208.51904297 C54.84666504 209.98510986 54.80783203 211.45117676 54.76782227 212.96166992 C54.86563718 220.41325033 55.68756016 224.74912176 60.79956055 230.34326172 C62.52897997 231.97241795 64.26582485 233.59373269 66.01049805 235.20654297 C67.53997412 237.01535862 69.04438731 238.84599723 70.51049805 240.70654297 C74.41240779 245.54407939 78.52458392 250.14122499 82.7487793 254.69873047 C89.01049805 261.64177613 89.01049805 261.64177613 89.01049805 265.20654297 C81.41180234 265.33333453 73.81337946 265.42089141 66.21386719 265.48120117 C63.62880255 265.50634298 61.04380898 265.54046112 58.45898438 265.58374023 C54.74290431 265.64440219 51.02776419 265.67275716 47.3112793 265.69482422 C46.15590164 265.72063065 45.00052399 265.74643707 43.81013489 265.77302551 C35.76556433 265.77583661 35.76556433 265.77583661 31.91650391 262.8737793 C31.28752197 261.99359131 30.65854004 261.11340332 30.01049805 260.20654297 C29.50679687 259.65272949 29.0030957 259.09891602 28.48413086 258.52832031 C28.06486328 258.03799316 27.6455957 257.54766602 27.21362305 257.04248047 C26.73425293 256.48310791 26.25488281 255.92373535 25.76098633 255.34741211 C25.2658252 254.76467529 24.77066406 254.18193848 24.26049805 253.58154297 C23.7382666 252.96980225 23.21603516 252.35806152 22.67797852 251.7277832 C18.7202709 247.077386 14.84064842 242.36864525 10.9909668 237.62841797 C8.38387344 234.44025646 5.70767157 231.31866626 3.01049805 228.20654297 C-0.52513267 228.79191229 -2.14139804 230.03487118 -4.67700195 232.51904297 C-27.59379399 253.48227241 -58.40069362 269.47005753 -89.98950195 269.20654297 C-110.25542535 268.08842306 -130.28023859 260.87206284 -144.33325195 245.67138672 C-159.10167351 228.17080718 -163.45663696 210.73813025 -161.98950195 188.20654297 C-160.14792817 174.04984004 -152.13896915 161.77199914 -142.98950195 151.20654297 C-142.40168945 150.49755859 -141.81387695 149.78857422 -141.20825195 149.05810547 C-130.65431041 136.537293 -116.66232723 127.02613117 -102.98950195 118.20654297 C-102.5985539 108.65177245 -104.82091641 103.09298923 -110.5090332 95.58154297 C-123.32133645 78.61134107 -129.44945535 57.13804 -126.70532227 36.01953125 C-123.70345849 18.79301809 -114.67189322 4.21132949 -100.5402832 -6.13720703 C-70.50509671 -25.63938019 -26.63989875 -25.36925287 0 0 Z M-80.92700195 30.58154297 C-82.48975896 33.97049244 -82.48975896 33.97049244 -81.98950195 41.20654297 C-72.41950195 41.53654297 -62.84950195 41.86654297 -52.98950195 42.20654297 C-52.98950195 48.14654297 -52.98950195 54.08654297 -52.98950195 60.20654297 C-66.35450195 60.70154297 -66.35450195 60.70154297 -79.98950195 61.20654297 C-76.09832062 72.88008696 -67.93932964 82.01862736 -59.98950195 91.20654297 C-55.76702089 90.62413179 -52.71641141 88.15069089 -49.36450195 85.70654297 C-48.74567139 85.25657959 -48.12684082 84.80661621 -47.48925781 84.34301758 C-36.61081697 76.3253237 -26.63848909 67.76719748 -22.98950195 54.20654297 C-22.01010193 44.92801639 -22.28843825 36.85431135 -27.98950195 29.20654297 C-33.94628465 22.2255171 -41.35975548 18.82850813 -50.41918945 17.82763672 C-63.04111955 17.39954062 -72.88510968 20.72373954 -80.92700195 30.58154297 Z M-77.48950195 147.58154297 C-79.07891602 148.69335938 -79.07891602 148.69335938 -80.70043945 149.82763672 C-81.79789061 150.61908656 -82.89425384 151.41204724 -83.98950195 152.20654297 C-85.52477539 153.30675781 -85.52477539 153.30675781 -87.09106445 154.42919922 C-100.58773427 164.31629455 -114.60605589 175.20731112 -118.7277832 192.26123047 C-119.81711971 200.73384775 -118.04037687 207.56804249 -113.3605957 214.68310547 C-107.75119154 221.68607768 -100.40328401 225.40194895 -91.98950195 228.20654297 C-69.5675672 229.80810974 -52.39320805 220.54149108 -35.64575195 206.45263672 C-31.91283249 203.21537046 -28.43097982 199.74943572 -24.98950195 196.20654297 C-27.60338279 192.1092698 -30.3364685 188.57474765 -33.67700195 185.01904297 C-37.05952371 181.3595896 -40.30584928 177.65364305 -43.42700195 173.76904297 C-47.07900425 169.24107539 -50.91717436 164.95670606 -54.88793945 160.71142578 C-58.86360691 156.43058385 -62.46473722 151.92955334 -66.0168457 147.28857422 C-67.81485139 145.16876673 -67.81485139 145.16876673 -69.8996582 144.19482422 C-73.13913611 144.21298952 -74.86531563 145.74037998 -77.48950195 147.58154297 Z " fill="#6C5A4B" transform="translate(415.989501953125,126.79345703125)"/>
<path d="M0 0 C1.27423828 -0.00193359 1.27423828 -0.00193359 2.57421875 -0.00390625 C3.46753906 -0.00003906 4.36085938 0.00382813 5.28125 0.0078125 C6.17457031 0.00394531 7.06789063 0.00007812 7.98828125 -0.00390625 C8.83777344 -0.00261719 9.68726563 -0.00132812 10.5625 0 C11.34689453 0.00112793 12.13128906 0.00225586 12.93945312 0.00341797 C14.78125 0.1328125 14.78125 0.1328125 15.78125 1.1328125 C15.87777596 3.00576034 15.90312266 4.88239494 15.90150452 6.75782776 C15.90356651 8.58996826 15.90356651 8.58996826 15.90567017 10.4591217 C15.90213056 11.82504297 15.89849574 13.19096398 15.89477539 14.55688477 C15.89449352 15.98558551 15.89465124 17.4142864 15.8952179 18.84298706 C15.89550589 22.73331222 15.88960887 26.62360681 15.88264394 30.51392484 C15.8764107 34.57519455 15.87580663 38.63646489 15.87461853 42.69773865 C15.87150512 50.39360183 15.86329161 58.08945088 15.85326904 65.78530782 C15.84210819 74.54453364 15.83659753 83.30376011 15.83157361 92.06299126 C15.82110901 110.08627303 15.80350939 128.10954163 15.78125 146.1328125 C8.73792033 146.23499048 1.69478475 146.30460177 -5.34912109 146.35253906 C-7.74079532 146.37254227 -10.13242133 146.39975374 -12.52392578 146.43457031 C-15.97961386 146.48358716 -19.43465033 146.50589512 -22.890625 146.5234375 C-23.94425232 146.54408264 -24.99787964 146.56472778 -26.08343506 146.58599854 C-38.46825578 146.58966637 -49.33771929 142.62740851 -58.375 134.09765625 C-68.3426024 123.55356938 -72.19379324 110.96875603 -72.59375 96.5703125 C-72.19714756 82.97015382 -68.00432225 69.91838475 -58.21875 60.1328125 C-47.65370427 51.55225658 -37.35946861 47.95578193 -23.90625 47.9453125 C-22.68131836 47.92694336 -22.68131836 47.92694336 -21.43164062 47.90820312 C-20.62275391 47.90626953 -19.81386719 47.90433594 -18.98046875 47.90234375 C-18.25819092 47.89823486 -17.53591309 47.89412598 -16.79174805 47.88989258 C-13.14332151 48.23434503 -9.75952233 49.19024093 -6.21875 50.1328125 C-6.20844254 49.52115738 -6.19813507 48.90950226 -6.18751526 48.27931213 C-6.07968255 41.93698934 -5.96506658 35.59481536 -5.84643555 29.25268555 C-5.8030119 26.88292542 -5.76134251 24.5131325 -5.72143555 22.14331055 C-5.66391232 18.74517917 -5.60016697 15.34721407 -5.53515625 11.94921875 C-5.51844376 10.88256485 -5.50173126 9.81591095 -5.48451233 8.7169342 C-5.46456711 7.73599289 -5.44462189 6.75505157 -5.42407227 5.74438477 C-5.40852798 4.87612564 -5.3929837 4.00786652 -5.37696838 3.11329651 C-5.08296104 -0.5669133 -3.23797667 0.00465609 0 0 Z M-43.75 76.19921875 C-50.96639093 85.69952065 -51.22285912 96.62859087 -50.21875 108.1328125 C-48.89232131 113.81652508 -46.50288298 119.08668691 -42.21875 123.1328125 C-30.02518262 130.53964888 -21.34979025 128.1328125 -5.21875 128.1328125 C-5.21875 108.9928125 -5.21875 89.8528125 -5.21875 70.1328125 C-19.15924275 65.48598158 -33.1470886 64.57102582 -43.75 76.19921875 Z " fill="#9B3D3B" transform="translate(938.21875,240.8671875)"/>
<path d="M0 0 C1.05048523 0.00607269 1.05048523 0.00607269 2.12219238 0.01226807 C2.86054321 0.00876343 3.59889404 0.00525879 4.35961914 0.00164795 C6.80661346 -0.00717336 9.25331999 -0.00131891 11.70031738 0.00543213 C13.39660701 0.00408559 15.09289627 0.00214515 16.78918457 -0.00036621 C20.34683908 -0.00331801 23.90439327 0.00098194 27.46203613 0.01031494 C32.02882879 0.02170954 36.59538638 0.01515036 41.16217041 0.00317001 C44.66566752 -0.0040471 48.16910865 -0.00176135 51.67260742 0.0034256 C53.35677111 0.00476251 55.04093984 0.00311293 56.72509766 -0.00153351 C59.07635012 -0.00659634 61.42721861 0.0011078 63.77844238 0.01226807 C64.82892761 0.00619537 64.82892761 0.00619537 65.90063477 0 C70.72178823 0.04252797 70.72178823 0.04252797 72.95031738 2.27105713 C73.1932373 4.13458252 73.1932373 4.13458252 73.18078613 6.36871338 C73.17885254 7.16986572 73.17691895 7.97101807 73.17492676 8.79644775 C73.16268066 9.63369385 73.15043457 10.47093994 73.13781738 11.33355713 C73.13685059 12.59522705 73.13685059 12.59522705 73.13586426 13.88238525 C73.09054922 20.13082529 73.09054922 20.13082529 71.95031738 21.27105713 C69.13868359 21.35967705 66.35173483 21.38628068 63.54016113 21.36871338 C62.69812637 21.36729843 61.85609161 21.36588348 60.98854065 21.36442566 C58.28826404 21.35880976 55.58806911 21.34625461 52.88781738 21.33355713 C51.0616467 21.32854417 49.23547473 21.32398091 47.40930176 21.31988525 C42.92294196 21.30883517 38.43664354 21.29155992 33.95031738 21.27105713 C33.6665625 22.17211182 33.38280762 23.0731665 33.0904541 24.00152588 C32.13594449 26.73874059 31.11633917 29.06690882 29.70812988 31.58355713 C29.2814502 32.34926025 28.85477051 33.11496338 28.41516113 33.90386963 C27.9730127 34.6850415 27.53086426 35.46621338 27.07531738 36.27105713 C26.64090332 37.052229 26.20648926 37.83340088 25.75891113 38.63824463 C23.86403938 42.01828614 21.9962204 45.20879421 19.69250488 48.33355713 C17.33547196 51.86197196 17.33547196 51.86197196 16.95031738 59.27105713 C35.10031738 59.27105713 53.25031738 59.27105713 71.95031738 59.27105713 C73.59103998 62.55250231 73.09306172 66.16895709 73.07531738 69.77105713 C73.07918457 70.55609619 73.08305176 71.34113525 73.08703613 72.14996338 C73.07697132 78.01774925 73.07697132 78.01774925 71.95031738 80.27105713 C53.80031738 80.27105713 35.65031738 80.27105713 16.95031738 80.27105713 C16.95031738 89.84105713 16.95031738 99.41105713 16.95031738 109.27105713 C16.29031738 109.27105713 15.63031738 109.27105713 14.95031738 109.27105713 C14.95031738 121.15105713 14.95031738 133.03105713 14.95031738 145.27105713 C8.35031738 145.27105713 1.75031738 145.27105713 -5.04968262 145.27105713 C-5.25689129 135.83390001 -5.44419369 126.3964851 -5.61218262 116.95855713 C-5.62491589 116.24388905 -5.63764915 115.52922096 -5.65076828 114.79289627 C-6.07204789 90.75528901 -6.02572152 66.74594016 -5.61218262 42.70855713 C-5.59936878 41.96302456 -5.58655495 41.21749199 -5.57335281 40.44936752 C-5.41607996 31.38958073 -5.24191591 22.33017406 -5.04968262 13.27105713 C-5.70968262 13.27105713 -6.36968262 13.27105713 -7.04968262 13.27105713 C-7.10360254 11.47971735 -7.14243833 9.68791813 -7.17468262 7.89605713 C-7.19788574 6.89832275 -7.22108887 5.90058838 -7.24499512 4.87261963 C-6.87734943 -0.02442093 -4.30815639 0.03800277 0 0 Z " fill="#9B3D3B" transform="translate(454.0496826171875,240.72894287109375)"/>
<path d="M0 0 C10.27294638 10.40888328 13.29407308 23.06399342 13.31689453 37.14990234 C13.11907697 50.72116387 8.50418699 62.38457907 -0.8125 72.3125 C-12.32100707 83.1453182 -27.30361639 86.44934356 -42.63671875 86.2109375 C-55.05845704 85.77527575 -67.15374431 80.84625569 -76 72 C-81.38870826 65.50402292 -85.48488471 59.07484381 -88 51 C-88.22429687 50.29617187 -88.44859375 49.59234375 -88.6796875 48.8671875 C-92.10835989 36.13882837 -90.40314989 22.58832206 -84.421875 10.921875 C-77.31314448 -0.79792396 -67.68310332 -9.01196454 -54.3125 -12.875 C-52.54782729 -13.27799618 -50.77700903 -13.65545016 -49 -14 C-48.31035156 -14.15339844 -47.62070313 -14.30679688 -46.91015625 -14.46484375 C-29.91393259 -17.36822937 -12.70510149 -11.07933021 0 0 Z M-61.53125 14.0625 C-68.17962874 22.83270174 -68.94829854 32.35166683 -68 43 C-66.5238794 50.02633407 -63.65067408 56.40284143 -58 61 C-49.39637259 66.22752045 -41.35560303 68.46680647 -31.3359375 66.46875 C-22.9417787 64.13563033 -17.03995159 60.1125944 -12 53 C-7.7388714 45.25399491 -6.70187424 36.11837213 -8.53125 27.49609375 C-11.31489896 18.55513431 -16.74083162 11.42505553 -25.02734375 6.890625 C-37.56950528 1.93915714 -52.34116271 4.00542334 -61.53125 14.0625 Z " fill="#9B3D3B" transform="translate(197,181)"/>
<path d="M0 0 C11.37858546 7.92496788 18.62335686 18.0393855 21.76318359 31.70996094 C24.35634948 46.33107711 21.412509 61.12450823 12.9765625 73.34765625 C5.06809144 83.60864718 -4.95533933 89.66383181 -17.6796875 92.33984375 C-34.50720409 94.49985505 -50.12631298 92.34654902 -63.875 81.75 C-73.30711089 73.83919731 -79.00410442 62.91973028 -80.875 50.75 C-81.92980908 34.14972588 -78.98577833 20.90210838 -68.21875 7.72265625 C-51.15379135 -10.67047135 -20.93807761 -12.51701767 0 0 Z M-53.18359375 21.55859375 C-59.09380606 29.21593579 -60.51499605 37.92665748 -59.62109375 47.45703125 C-58.03793091 56.74206735 -54.57426093 63.01142295 -47.2890625 69.05078125 C-39.42383419 74.58698564 -30.4866689 74.73595062 -21.203125 73.3515625 C-13.19838964 71.43738665 -6.92148264 66.30411549 -2.4375 59.4375 C1.96343907 50.5144951 2.31938833 39.37099928 -0.78125 30.015625 C-4.42414483 21.89295409 -9.86566441 16.73679667 -18.0625 13.3125 C-31.15509674 9.12359439 -43.82168878 11.28886769 -53.18359375 21.55859375 Z " fill="#9B3D3B" transform="translate(618.875,296.25)"/>
<path d="M0 0 C1.40958984 -0.00193359 1.40958984 -0.00193359 2.84765625 -0.00390625 C3.83636719 -0.00003906 4.82507813 0.00382812 5.84375 0.0078125 C7.32681641 0.00201172 7.32681641 0.00201172 8.83984375 -0.00390625 C9.77957031 -0.00261719 10.71929688 -0.00132813 11.6875 0 C12.55568359 0.00112793 13.42386719 0.00225586 14.31835938 0.00341797 C16.34375 0.1328125 16.34375 0.1328125 17.34375 1.1328125 C17.43975136 2.7397045 17.46562889 4.35083019 17.46400452 5.96058655 C17.46537918 7.00531631 17.46675385 8.05004608 17.46817017 9.12643433 C17.46457489 10.28233063 17.46097961 11.43822693 17.45727539 12.62915039 C17.45742142 13.83873917 17.45756744 15.04832794 17.4577179 16.29457092 C17.45713893 19.62087601 17.45210973 22.94711969 17.44514394 26.2734139 C17.43890978 29.74611179 17.43830655 33.21881043 17.43711853 36.69151306 C17.4340054 43.27177443 17.42579225 49.85201926 17.41576904 56.43227333 C17.40460734 63.92187362 17.39909731 71.41147468 17.39407361 78.9010812 C17.38360962 94.31166789 17.36601053 109.72223807 17.34375 125.1328125 C18.14332626 125.13059189 18.94290253 125.12837128 19.76670837 125.12608337 C27.28634639 125.10608158 34.80597159 125.09083895 42.32562923 125.08100033 C46.19195118 125.07577224 50.05825121 125.06867596 53.92456055 125.05737305 C57.65278401 125.0465415 61.38098634 125.0405351 65.10922432 125.03793526 C66.53464656 125.03608149 67.96006759 125.03246179 69.38548088 125.02708244 C71.37538408 125.01986857 73.36530834 125.01940442 75.35522461 125.01928711 C76.48995712 125.0170665 77.62468964 125.01484589 78.79380798 125.01255798 C81.34375 125.1328125 81.34375 125.1328125 82.34375 126.1328125 C82.44235131 127.53629985 82.47453937 128.94461727 82.4765625 130.3515625 C82.47785156 131.20105469 82.47914062 132.05054688 82.48046875 132.92578125 C82.47660156 133.81910156 82.47273438 134.71242187 82.46875 135.6328125 C82.47261719 136.52613281 82.47648437 137.41945313 82.48046875 138.33984375 C82.47917969 139.18933594 82.47789063 140.03882813 82.4765625 140.9140625 C82.47543457 141.69845703 82.47430664 142.48285156 82.47314453 143.29101562 C82.34375 145.1328125 82.34375 145.1328125 81.34375 146.1328125 C78.63536914 146.22795842 75.95256487 146.25836182 73.24389648 146.24633789 C72.39518982 146.24648392 71.54648315 146.24662994 70.67205811 146.2467804 C67.85296109 146.24608098 65.03392929 146.23828728 62.21484375 146.23046875 C60.26571183 146.22860467 58.31657945 146.22718072 56.3674469 146.22618103 C51.22668168 146.22235505 46.08594453 146.21252409 40.94519043 146.20147705 C35.70369852 146.19126465 30.4622021 146.18668378 25.22070312 146.18164062 C14.92837306 146.17090189 4.63606386 146.15382451 -5.65625 146.1328125 C-5.67957783 127.24443369 -5.6972286 108.35605779 -5.70806217 89.46766758 C-5.71322538 80.69808535 -5.72026854 71.92851205 -5.73168945 63.15893555 C-5.74163554 55.51818347 -5.74810325 47.87743786 -5.75033849 40.23667949 C-5.75164573 36.18842865 -5.75473238 32.14019631 -5.76198006 28.09195137 C-5.76873909 24.28600381 -5.7708672 20.48008248 -5.76935768 16.67412949 C-5.76963406 15.27323578 -5.77163988 13.87234125 -5.77545547 12.47145271 C-5.78039083 10.56691742 -5.778648 8.66236824 -5.77650452 6.75782776 C-5.77742631 5.68946969 -5.7783481 4.62111162 -5.77929783 3.52037907 C-5.56280672 -0.68032034 -3.73173972 0.00484821 0 0 Z " fill="#9B3D3B" transform="translate(17.65625,118.8671875)"/>
<path d="M0 0 C7.36068871 5.75643604 11.22966782 13.63359547 13.015625 22.6796875 C13.40771574 28.11359733 13.36672071 33.52585292 13.30859375 38.96875 C13.30298711 40.52387072 13.29872207 42.0789968 13.29573059 43.63412476 C13.28436572 47.69479423 13.25497238 51.75513339 13.22161865 55.81567383 C13.19073577 59.97212254 13.17718662 64.12862547 13.16210938 68.28515625 C13.13009309 76.41681697 13.07900022 84.54821095 13.015625 92.6796875 C9.70314313 92.70856896 6.39069333 92.72644549 3.078125 92.7421875 C2.13259766 92.75056641 1.18707031 92.75894531 0.21289062 92.76757812 C-1.13579102 92.77241211 -1.13579102 92.77241211 -2.51171875 92.77734375 C-3.76069946 92.78519897 -3.76069946 92.78519897 -5.03491211 92.79321289 C-6.984375 92.6796875 -6.984375 92.6796875 -7.984375 91.6796875 C-8.08713761 89.66669882 -8.12010169 87.65012218 -8.1262207 85.63452148 C-8.13325516 84.33904892 -8.14028961 83.04357635 -8.14753723 81.70884705 C-8.14935312 81.01145857 -8.15116901 80.31407009 -8.15303993 79.59554863 C-8.160198 77.41305269 -8.1758628 75.23078257 -8.19438171 73.0483551 C-8.24685738 66.8411077 -8.29475452 60.6339777 -8.31030273 54.42651367 C-8.32043102 50.63200873 -8.34988573 46.8380627 -8.39162254 43.04377937 C-8.4038785 41.60186063 -8.40906373 40.15986269 -8.40682411 38.7178936 C-8.39740718 30.66955309 -8.46544636 24.4941758 -12.984375 17.6796875 C-17.49872874 13.38554614 -21.36093346 12.2566622 -27.4453125 12.3359375 C-33.81031798 13.19766132 -40.22264407 16.88570261 -44.68388367 21.45220947 C-47.68633833 26.59480568 -46.80467399 33.29722271 -46.75390625 39.10546875 C-46.76262397 40.6190927 -46.77411501 42.13270299 -46.78825378 43.64628601 C-46.81857755 47.61630561 -46.81422365 51.58551656 -46.80163574 55.55560303 C-46.79218171 60.39425107 -46.82061531 65.23279479 -46.84669781 70.07136059 C-46.86672467 73.83189888 -46.87994912 77.59202153 -46.87251282 81.35261536 C-46.87298866 82.38494293 -46.87298866 82.38494293 -46.87347412 83.43812561 C-46.87421911 85.29817329 -46.87052953 87.15822124 -46.86653137 89.01826477 C-46.984375 91.6796875 -46.984375 91.6796875 -47.984375 92.6796875 C-49.46090164 92.77849547 -50.94204736 92.81047995 -52.421875 92.8125 C-53.76378906 92.81443359 -53.76378906 92.81443359 -55.1328125 92.81640625 C-56.54433594 92.81060547 -56.54433594 92.81060547 -57.984375 92.8046875 C-59.39589844 92.81048828 -59.39589844 92.81048828 -60.8359375 92.81640625 C-61.73054687 92.81511719 -62.62515625 92.81382812 -63.546875 92.8125 C-64.37316406 92.81137207 -65.19945312 92.81024414 -66.05078125 92.80908203 C-67.984375 92.6796875 -67.984375 92.6796875 -68.984375 91.6796875 C-69.09028602 88.76848201 -69.1311516 85.88087245 -69.12963867 82.96899414 C-69.13299728 82.05522507 -69.1363559 81.14145599 -69.13981628 80.19999695 C-69.14935685 77.16326559 -69.15127094 74.12658918 -69.15234375 71.08984375 C-69.15555413 68.98856076 -69.15891803 66.88727799 -69.16242981 64.78599548 C-69.16842883 60.37498455 -69.17026891 55.96399324 -69.16967773 51.55297852 C-69.16957606 45.88872483 -69.18323044 40.22459634 -69.20044994 34.56037235 C-69.21154476 30.21877968 -69.21359772 25.87721751 -69.21306801 21.53561211 C-69.21425185 19.44673671 -69.21869609 17.35786062 -69.22640038 15.2689991 C-69.23614977 12.35250089 -69.23334233 9.43627762 -69.22729492 6.51977539 C-69.23291443 5.64956757 -69.23853394 4.77935974 -69.24432373 3.88278198 C-69.21269025 -2.09199725 -69.21269025 -2.09199725 -66.984375 -4.3203125 C-65.13671875 -4.57910156 -65.13671875 -4.57910156 -62.921875 -4.5859375 C-61.72691406 -4.58980469 -61.72691406 -4.58980469 -60.5078125 -4.59375 C-59.67507813 -4.58601563 -58.84234375 -4.57828125 -57.984375 -4.5703125 C-57.15164063 -4.57804687 -56.31890625 -4.58578125 -55.4609375 -4.59375 C-54.66429687 -4.59117187 -53.86765625 -4.58859375 -53.046875 -4.5859375 C-52.31597656 -4.58368164 -51.58507812 -4.58142578 -50.83203125 -4.57910156 C-48.984375 -4.3203125 -48.984375 -4.3203125 -46.984375 -2.3203125 C-46.58390056 0.00243927 -46.2446646 2.33708107 -45.984375 4.6796875 C-45.3553125 4.20917969 -44.72625 3.73867188 -44.078125 3.25390625 C-30.66823856 -6.5005744 -14.7068325 -9.7852547 0 0 Z " fill="#9B3D3B" transform="translate(832.984375,294.3203125)"/>
<path d="M0 0 C0.80115234 -0.00128906 1.60230469 -0.00257813 2.42773438 -0.00390625 C3.26498047 -0.00003906 4.10222656 0.00382812 4.96484375 0.0078125 C5.80595703 0.00394531 6.64707031 0.00007813 7.51367188 -0.00390625 C13.77571693 0.00618568 13.77571693 0.00618568 14.90234375 1.1328125 C15.01031326 3.10973108 15.04863076 5.09048072 15.06005859 7.0703125 C15.07032074 8.34253662 15.08058289 9.61476074 15.09115601 10.92553711 C15.09459393 11.61050262 15.09803185 12.29546814 15.10157394 13.00119019 C15.11335451 15.14615139 15.13281023 17.29091047 15.1546936 19.43579102 C15.21629999 25.5363887 15.27014272 31.63697173 15.30371094 37.73779297 C15.32478569 41.46739213 15.36020234 45.19663264 15.40446854 48.92602539 C15.41854231 50.34199771 15.42733131 51.7580336 15.43052292 53.17407227 C15.17719119 66.48282675 15.17719119 66.48282675 21.40234375 77.6328125 C26.91675609 80.9414599 32.64527489 80.71246482 38.90234375 80.1328125 C44.99612883 78.21107962 50.35861371 74.44840756 53.90234375 69.1328125 C54.22564948 66.08590633 54.22564948 66.08590633 54.20532227 62.56591797 C54.21798126 61.57280609 54.21798126 61.57280609 54.230896 60.55963135 C54.25666983 58.37308025 54.26881111 56.18666403 54.28125 54 C54.29742195 52.48209561 54.31460162 50.96420165 54.33274841 49.44631958 C54.37843885 45.45189216 54.41324659 41.45745094 54.44494629 37.46289062 C54.49682658 31.06156293 54.56180971 24.66038792 54.63316154 18.25925064 C54.65606136 16.01845921 54.6722872 13.77768742 54.68788147 11.53683472 C54.7012824 10.17152691 54.7148967 8.80622117 54.72875977 7.44091797 C54.74302757 5.64580276 54.74302757 5.64580276 54.75758362 3.81442261 C54.90234375 1.1328125 54.90234375 1.1328125 55.90234375 0.1328125 C58.89101017 0.03269954 61.85144828 -0.00592725 64.83984375 0.0078125 C66.09571289 0.00201172 66.09571289 0.00201172 67.37695312 -0.00390625 C68.57868164 -0.00197266 68.57868164 -0.00197266 69.8046875 0 C70.54195068 0.00112793 71.27921387 0.00225586 72.03881836 0.00341797 C73.90234375 0.1328125 73.90234375 0.1328125 75.90234375 1.1328125 C75.90234375 32.8128125 75.90234375 64.4928125 75.90234375 97.1328125 C68.97234375 97.1328125 62.04234375 97.1328125 54.90234375 97.1328125 C54.40734375 92.6778125 54.40734375 92.6778125 53.90234375 88.1328125 C53.11923828 88.82117188 53.11923828 88.82117188 52.3203125 89.5234375 C43.35624105 96.99611353 34.98211115 99.90867074 23.265625 99.51171875 C14.52427819 98.52692126 7.72353721 94.69464887 1.90234375 88.1328125 C-5.90857656 77.37245613 -6.53459918 65.2374735 -6.390625 52.40234375 C-6.38501599 50.91591321 -6.38075208 49.42947705 -6.37776184 47.94303894 C-6.36641552 44.0681473 -6.33703914 40.19360366 -6.3036499 36.31884766 C-6.27272607 32.34998276 -6.25920928 28.38106054 -6.24414062 24.41210938 C-6.21215729 16.65218667 -6.16108812 8.89254871 -6.09765625 1.1328125 C-3.81874592 -0.00664266 -2.52983521 0.00387036 0 0 Z " fill="#9B3D3B" transform="translate(665.09765625,289.8671875)"/>
<path d="M0 0 C0 6.93 0 13.86 0 21 C-4.09930611 19.63356463 -7.14238203 18.49634941 -10.8125 16.5 C-17.57302181 13.05883349 -24.3673002 11.27993398 -32 12 C-35.35161246 13.38214122 -35.35161246 13.38214122 -38 15 C-38.41890218 17.78938212 -38.41890218 17.78938212 -38 21 C-34.60311785 24.93356428 -30.70566732 27.67805491 -26.3125 30.375 C-25.06423943 31.16138946 -23.81684802 31.9491602 -22.5703125 32.73828125 C-21.96219727 33.12193848 -21.35408203 33.5055957 -20.72753906 33.90087891 C1.8932323 48.29300902 1.8932323 48.29300902 4.55859375 59.30859375 C5.73051719 67.05295383 3.92186668 73.43081902 0.25 80.25 C-5.67306549 87.48930227 -11.72163444 91.13590158 -21 93 C-35.42604029 94.28263495 -47.93939847 91.16442653 -61 85 C-62 84 -62 84 -62.11352539 81.95874023 C-62.10828857 81.08419189 -62.10305176 80.20964355 -62.09765625 79.30859375 C-62.09443359 78.36435547 -62.09121094 77.42011719 -62.08789062 76.44726562 C-62.07951172 75.45404297 -62.07113281 74.46082031 -62.0625 73.4375 C-62.05798828 72.44041016 -62.05347656 71.44332031 -62.04882812 70.41601562 C-62.03700007 67.94395151 -62.02051849 65.47200482 -62 63 C-58.29806698 63 -57.35309962 63.07973838 -54.3203125 64.6796875 C-53.29744141 65.20755859 -53.29744141 65.20755859 -52.25390625 65.74609375 C-51.55136719 66.11863281 -50.84882813 66.49117188 -50.125 66.875 C-40.5973204 71.8774737 -32.17044064 75.10168088 -21.375 71.9375 C-18.70210388 70.10982191 -18.70210388 70.10982191 -17.875 66.625 C-18.03225555 62.064589 -18.81901827 61.23359947 -22 58 C-25.12596486 55.85895863 -28.39297701 53.99310315 -31.6875 52.125 C-56.54614931 37.93601815 -56.54614931 37.93601815 -60.5625 25.05859375 C-62.18206697 17.43795275 -60.94646904 10.73352344 -57 4 C-51.26866577 -2.91985977 -43.74121739 -6.00587377 -35.125 -7.8125 C-22.60659301 -8.81597952 -11.11516705 -5.55758352 0 0 Z " fill="#9B3D3B" transform="translate(286,174)"/>
<path d="M0 0 C0.495 8.415 0.495 8.415 1 17 C3.08183594 16.98839844 5.16367187 16.97679687 7.30859375 16.96484375 C9.31746298 16.95789265 11.32633251 16.95097611 13.33520508 16.94506836 C14.73495228 16.9400292 16.1346942 16.93319784 17.53442383 16.92456055 C19.54245777 16.9124768 21.55052957 16.90730193 23.55859375 16.90234375 C25.37315063 16.89448853 25.37315063 16.89448853 27.22436523 16.88647461 C30 17 30 17 31 18 C31.0983721 19.33043625 31.13078592 20.66593344 31.1328125 22 C31.13410156 22.804375 31.13539063 23.60875 31.13671875 24.4375 C31.13285156 25.283125 31.12898438 26.12875 31.125 27 C31.12886719 27.845625 31.13273437 28.69125 31.13671875 29.5625 C31.13542969 30.366875 31.13414062 31.17125 31.1328125 32 C31.13168457 32.7425 31.13055664 33.485 31.12939453 34.25 C31 36 31 36 30 37 C27.9394469 37.09993532 25.8754741 37.13080906 23.8125 37.1328125 C22.55695313 37.13410156 21.30140625 37.13539063 20.0078125 37.13671875 C19.35071289 37.13462402 18.69361328 37.1325293 18.01660156 37.13037109 C16.00838665 37.12502234 14.00039541 37.13031691 11.9921875 37.13671875 C10.73664063 37.13542969 9.48109375 37.13414062 8.1875 37.1328125 C7.02605469 37.13168457 5.86460937 37.13055664 4.66796875 37.12939453 C2 37 2 37 1 36 C0.89846083 43.43803225 0.82847567 50.8758853 0.78027344 58.31445312 C0.76017595 60.84414347 0.73289332 63.37378746 0.69824219 65.90332031 C0.64964444 69.54243417 0.62701188 73.180933 0.609375 76.8203125 C0.57840729 78.51282639 0.57840729 78.51282639 0.54681396 80.23953247 C0.5450397 86.46834003 0.75408498 90.29473304 5 95 C9.45406902 98.11334926 14.80186252 97.57085489 20 97 C22.95737015 96.15558294 25.74638479 95.14102893 28.58984375 93.97265625 C31 93 31 93 35 92 C35 97.61 35 103.22 35 109 C23.09229001 114.67033809 11.25109117 117.40984884 -1.64453125 113.04296875 C-8.04008065 110.21110857 -12.62603784 106.14543108 -16 100 C-16.34315247 99.39736832 -16.68630493 98.79473663 -17.03985596 98.17384338 C-20.48087806 91.45877217 -20.44492621 85.51742532 -20.171875 78.08984375 C-20.14401917 76.88179581 -20.11616333 75.67374786 -20.08746338 74.42909241 C-19.99462906 70.59775453 -19.8727642 66.7679839 -19.75 62.9375 C-19.68167025 60.32882571 -19.61524387 57.72010083 -19.55078125 55.11132812 C-19.38920992 48.74008887 -19.2016113 42.37009285 -19 36 C-24.28 36 -29.56 36 -35 36 C-34.01539377 32.06157508 -33.66292526 31.28759728 -30.98071289 28.60839844 C-30.34657974 27.9680365 -29.71244659 27.32767456 -29.05909729 26.66790771 C-28.37057175 25.98859192 -27.6820462 25.30927612 -26.97265625 24.609375 C-26.26854111 23.90476135 -25.56442596 23.20014771 -24.838974 22.47418213 C-23.35042389 20.98797116 -21.85818284 19.50544911 -20.36254883 18.02636719 C-18.06609135 15.75355438 -15.78329278 13.46766396 -13.50195312 11.1796875 C-12.05547904 9.73878829 -10.6082393 8.29865721 -9.16015625 6.859375 C-8.47365494 6.17196228 -7.78715363 5.48454956 -7.07984924 4.77630615 C-6.44256393 4.14855286 -5.80527863 3.52079956 -5.14868164 2.87402344 C-4.58766251 2.31761169 -4.02664337 1.76119995 -3.44862366 1.18792725 C-2 0 -2 0 0 0 Z " fill="#9A3E3B" transform="translate(333,151)"/>
<path d="M0 0 C6.27 0 12.54 0 19 0 C18.06881199 4.65594006 16.61523655 8.04339447 14.375 12.125 C14.01962158 12.77936035 13.66424316 13.4337207 13.2980957 14.10791016 C4.25304716 30.58231761 4.25304716 30.58231761 0 32 C0 21.44 0 10.88 0 0 Z " fill="#6F5A4A" transform="translate(469,261)"/>
</svg>
